<svg xmlns="http://www.w3.org/2000/svg"  viewBox="0 0 100 100" width="400px" height="400px"><path fill="#1f212b" d="M97,48c0-0.298-0.135-0.579-0.364-0.77c-0.229-0.189-0.534-0.266-0.826-0.212 c-0.179,0.031-4.321,0.755-8.701-3.338c0.17-0.703,0.437-1.838,0.634-2.848c1.329,1.04,3.336,2.66,4.551,3.874 c0.294,0.295,0.741,0.378,1.12,0.203c0.379-0.172,0.612-0.561,0.584-0.977c-0.048-0.726-1.28-17.816-9.608-22.461 c-2.914-1.623-6.298-1.54-10.071,0.249c-2.914-4.193-6.156-10.47-4.611-12.015c0.27-0.27,0.363-0.67,0.239-1.031 s-0.443-0.621-0.822-0.668c-0.135-0.016-3.319-0.384-5.513,1.936c-1.072,1.133-1.698,2.674-1.878,4.606 C61.315,13.448,61,12.216,61,11c0-0.521-0.399-0.954-0.917-0.997c-0.517-0.038-0.983,0.319-1.069,0.833l-0.568,3.407 c-2.304-2.91-7.573-7.102-17.721-4.205c-0.395,0.113-0.679,0.457-0.719,0.866s0.177,0.802,0.543,0.988 c0.131,0.067,2.917,1.524,4.125,5.028C41.382,16.6,32.959,14.963,29.94,6.658c-0.154-0.424-0.574-0.691-1.021-0.655 c-0.449,0.037-0.818,0.37-0.901,0.812c-0.101,0.536-1.885,10.431,1.887,15.877c-6.554-1.455-7.296-0.714-7.611-0.399 c-0.3,0.3-0.374,0.764-0.191,1.146c0.008,0.017,0.691,1.492,0.861,4.966c-1.829-1.046-5.07-3.538-7.026-8.756 c-0.17-0.452-0.642-0.717-1.115-0.633C14.346,19.103,14,19.517,14,20c0,0.469,0.053,9.903,3.95,15.354 c-3.621-0.502-9.428-0.59-13.59,2.877c-0.345,0.288-0.453,0.77-0.268,1.179c0.184,0.409,0.624,0.648,1.066,0.577 c0.208-0.034,5.133-0.7,6.862,6.209c0.248,1.238,1.015,3.157,2.461,4.446c-2.526,0.103-6.038-0.543-8.667-4.224 c-0.261-0.364-0.732-0.511-1.153-0.359c-0.421,0.151-0.69,0.564-0.659,1.012c0.024,0.334,0.635,8.221,4.967,10.82 c0.65,0.391,1.342,0.644,2.075,0.759C8.682,60.858,6,64.563,6,70c0,0.452,0.304,0.847,0.741,0.964 c0.437,0.121,0.898-0.073,1.125-0.465c0.145-0.249,3.51-5.894,11.046-4.689C18.686,66.995,17.877,69,15,69 c-0.404,0-0.769,0.243-0.924,0.617s-0.069,0.804,0.217,1.09c1.203,1.202,3.618,2.778,5.983,2.331 c-0.299,1.499-0.291,3.361,1.017,4.669c0.223,0.222,0.536,0.329,0.849,0.283c0.854-0.123,2.812-0.109,3.403,0.711 c0.376,0.521,0.22,1.533-0.439,2.852c-0.21,0.42-0.099,0.93,0.266,1.225C25.555,82.926,25.777,83,26,83 c0.221,0,0.442-0.073,0.625-0.219C28.897,80.963,31.981,79,33,79c0.016,0,0.03-0.009,0.046-0.009 c2.861,5.109,8.336,10.177,18.783,11.995C51.885,90.995,51.942,91,52,91c0.015,0,0.03,0,0.045-0.001 c0.197-0.009,16.892-1.01,21.676-18.047c0.047,0.014,0.095,0.013,0.142,0.02C73.909,72.979,73.95,73,73.997,73 c0.173,0.001,4.237,0.061,5.033,3.242c0.113,0.454,0.526,0.764,0.994,0.758c0.467-0.012,0.865-0.345,0.957-0.804l0.785-3.927 c1.373,0.381,4.053,1.048,8.07,1.717c0.532,0.096,1.028-0.254,1.14-0.777c0.112-0.522-0.21-1.042-0.727-1.178 c-0.123-0.032-2.604-0.717-4.432-3.642c2.026,0.326,4.901,0.537,6.289-0.546C92.69,67.387,93,66.749,93,66 c0-0.487-0.354-0.904-0.834-0.986c-0.814-0.139-3.113-0.78-3.957-2.071c-0.323-0.495-0.401-1.051-0.239-1.7 c0.088-0.352,0.214-0.553,0.374-0.598c0.875-0.233,3.27,1.388,4.949,3.062c0.266,0.266,0.656,0.361,1.013,0.245 c0.356-0.114,0.619-0.418,0.681-0.788c0.041-0.243,0.855-5.473-2.988-9.664C94.025,52.802,97,51.228,97,48z M52.059,88.995 c-19.768-3.496-20.228-19.023-20.1-22.306c0.356-0.124,0.709-0.29,1.058-0.5C33.012,66.293,33,66.395,33,66.5 c0,4.136,3.589,7.5,8,7.5s8-3.364,8-7.5S45.411,59,41,59c-3.516,0-6.503,2.141-7.573,5.103c-0.017-0.008-0.031-0.021-0.049-0.029 c-0.016-0.007-1.528-0.649-2.104-2.197c-0.333-0.893-0.307-1.936,0.075-3.114l1.945,1.944c0.326,0.327,0.833,0.385,1.227,0.144 c0.394-0.24,0.571-0.722,0.43-1.161c-0.028-0.09-0.596-1.925,0.29-4.035l3.053,3.053c0.313,0.314,0.797,0.381,1.186,0.17 c0.39-0.213,0.592-0.658,0.498-1.092c-0.027-0.125-0.261-1.309-0.135-2.923c1.47,0.612,4.262,1.95,6.304,3.992 C46.244,58.951,46.372,59,46.5,59s0.256-0.049,0.354-0.146c0.195-0.195,0.195-0.512,0-0.707c-2.31-2.311-5.427-3.735-6.885-4.318 c0.38-2.229,1.528-4.952,4.623-6.942c-0.279,2.308-0.14,5.979,2.701,8.82c0.272,0.272,0.676,0.365,1.038,0.236 c0.363-0.127,0.621-0.451,0.663-0.833l0.56-5.033c1.326,3.821,1.928,7.372,0.903,8.083c-0.009,0.008-0.011,0.009-0.012,0.009 c-0.458,0.307-0.582,0.927-0.276,1.386c0.304,0.457,0.921,0.583,1.381,0.281c0,0,0,0,0.001-0.001 c0.003-0.001,0.003-0.002,0.005-0.003c0.326-0.217,6.779-4.594,8.234-11.018l3.238,6.476c-5.432,0.772-6.872,2.825-6.943,2.932 c-0.153,0.229-0.091,0.54,0.139,0.693C56.308,58.973,56.404,59,56.5,59c0.162,0,0.32-0.078,0.417-0.223 c0.017-0.026,1.713-2.434,9.003-2.744c-0.097,0.671-0.224,1.366-0.414,2.104C65.017,58.05,64.515,58,64,58c-4.411,0-8,3.364-8,7.5 s3.589,7.5,8,7.5s8-3.364,8-7.5c0-0.015-0.002-0.03-0.002-0.046c0.308-0.207,0.63-0.439,0.958-0.69 C72.039,87.144,53.802,88.882,52.059,88.995z M29.967,66.933c-0.005,1.002,0.066,2.664,0.439,4.667 c-1.211-0.731-3.219-2.466-3.488-6.049c0.697,0.584,1.579,1.119,2.612,1.321C29.677,66.901,29.822,66.918,29.967,66.933z M34,66.5 c0-3.584,3.14-6.5,7-6.5s7,2.916,7,6.5S44.86,73,41,73S34,70.084,34,66.5z M65.393,60.795c0.34,0.261,0.806,0.275,1.162,0.037 c0.153-0.102,0.59-0.401,1.159-0.832c0.831,0.486,1.548,1.123,2.096,1.879c-0.393,1.343-0.912,2.591-1.61,3.521 c-0.272,0.362-0.266,0.861,0.014,1.218c0.28,0.356,0.764,0.479,1.18,0.301c0.085-0.036,0.703-0.307,1.573-0.816 C70.638,69.405,67.641,72,64,72c-3.86,0-7-2.916-7-6.5s3.14-6.5,7-6.5c0.417,0,0.824,0.04,1.221,0.106 c-0.059,0.194-0.104,0.379-0.17,0.578C64.916,60.089,65.054,60.535,65.393,60.795z M70.125,60.684 c-0.458-0.511-0.987-0.963-1.573-1.344c0.684-0.56,1.446-1.234,2.148-1.984C70.571,58.41,70.386,59.558,70.125,60.684z M66.045,55.031c-0.366,0.014-0.708,0.037-1.049,0.061l0.604-5.433C65.982,51.016,66.241,52.819,66.045,55.031z M75,63 c0-0.025-0.012-0.046-0.014-0.071c0.958-1.026,1.832-2.246,2.411-3.679c0.266,0.57,0.492,1.307,0.549,2.209 c0.157,2.489-1.06,5.406-3.532,8.508C74.789,67.861,75,65.548,75,63z M89.834,52.014c-0.388,0.066-0.703,0.354-0.801,0.735 c-0.099,0.382,0.035,0.786,0.343,1.032c2.789,2.23,3.526,5.126,3.679,7.036c-1.49-1.194-3.626-2.553-5.244-2.1 c-0.623,0.172-1.438,0.666-1.781,2.04c-0.297,1.188-0.121,2.323,0.509,3.284c0.863,1.315,2.435,2.084,3.643,2.503 c-1.426,0.301-4.182-0.077-5.94-0.515c-0.366-0.093-0.749,0.029-0.996,0.312s-0.314,0.68-0.175,1.028 c0.631,1.576,1.445,2.79,2.288,3.721c-2.665-0.588-4.024-1.034-4.044-1.041c-0.271-0.09-0.57-0.059-0.817,0.085 c-0.248,0.144-0.422,0.387-0.479,0.668l-0.477,2.382c-1.023-1.048-2.376-1.64-3.596-1.937c2.864-3.572,4.209-6.927,3.99-9.991 c-0.235-3.272-2.212-4.956-2.296-5.026c-0.276-0.229-0.653-0.295-0.988-0.169c-0.336,0.125-0.579,0.42-0.638,0.773 c-0.481,2.882-2.553,5.026-4.385,6.408c-0.025-0.075-0.059-0.147-0.087-0.222C72.974,58.639,73,53.292,73,53 c0-0.004,0-0.008,0-0.013c0-0.003,0-0.006,0-0.008c0-0.002,0-0.004,0-0.005c0-0.005,0-0.009,0-0.013c0,0,0-0.001,0-0.005 c0,0,0,0,0-0.001C72.976,52.425,72.538,52,72,52c-0.552,0-1,0.447-1,0.999V53c0,0.001,0,0.005,0,0.012 c-0.01,1.223-1.593,2.976-3.279,4.421c1.524-7.604-1.782-11.859-1.94-12.058c-0.253-0.316-0.672-0.447-1.059-0.336 c-0.389,0.113-0.671,0.448-0.715,0.851l-0.626,5.635l-3.485-6.972c-0.217-0.436-0.719-0.651-1.184-0.51 c-0.466,0.141-0.763,0.598-0.703,1.081c0.582,4.655-2.637,8.667-5.057,10.97c-0.088-3.648-2.176-8.604-3.041-10.508 c-0.186-0.408-0.622-0.642-1.067-0.573c-0.444,0.07-0.787,0.43-0.836,0.877l-0.71,6.394c-1.531-3.251-0.361-6.924-0.347-6.967 c0.125-0.376,0.017-0.79-0.276-1.057c-0.294-0.269-0.718-0.334-1.079-0.174c-6.398,2.844-7.647,8.098-7.757,11.337l-2.13-2.13 c-0.212-0.211-0.503-0.315-0.806-0.288c-0.298,0.029-0.567,0.191-0.733,0.44c-0.922,1.383-1.283,2.765-1.385,3.923l-1.076-1.075 c-0.227-0.228-0.552-0.335-0.867-0.28c-0.317,0.052-0.59,0.253-0.734,0.54c-1.129,2.259-1.363,4.297-0.694,6.057 c0.384,1.009,1.007,1.754,1.604,2.279c-0.365,0.085-0.727,0.092-1.092,0.022c-1.783-0.345-3.054-2.407-3.065-2.426 c-0.219-0.364-0.648-0.552-1.064-0.464c-0.417,0.088-0.733,0.432-0.786,0.854c-1.089,8.713,5.608,11.05,5.676,11.072 c0.096,0.032,0.193,0.045,0.289,0.047c0.292,1.015,0.668,2.075,1.149,3.151c-1.313,0.36-2.995,1.37-4.374,2.316 c0.007-0.74-0.186-1.385-0.58-1.932c-1.152-1.598-3.585-1.656-4.727-1.578c-0.95-1.57,0.439-4.477,0.454-4.508 c0.218-0.438,0.086-0.971-0.312-1.257c-0.398-0.285-0.944-0.242-1.29,0.104c-1.209,1.21-2.692,0.871-3.828,0.275 C20.201,69.491,21,66.656,21,65c0-0.469-0.326-0.875-0.783-0.977c-2.487-0.552-4.626-0.455-6.433-0.008L17.671,61H22.5 c0.276,0,0.5-0.224,0.5-0.5S22.776,60,22.5,60h-5c-0.111,0-0.219,0.037-0.307,0.104l-7.034,5.455 c-0.692,0.434-1.296,0.9-1.806,1.357c1.444-6.098,6.832-8.89,7.095-9.022c0.485-0.244,0.687-0.831,0.454-1.321 c-0.232-0.491-0.814-0.707-1.309-0.486c-1.834,0.815-3.336,0.845-4.593,0.093c-1.926-1.154-2.948-3.892-3.476-6.091 c5.241,4.236,11.751,1.876,11.827,1.849c0.453-0.17,0.719-0.64,0.633-1.115S18.483,50,18,50c-3.122,0-3.985-4.027-4.03-4.242 c-1.224-4.896-3.895-6.744-6.034-7.419c5.495-2.499,12.695-0.406,12.777-0.381c0.475,0.144,0.982-0.085,1.191-0.533 c0.21-0.448,0.062-0.982-0.35-1.257c-3.234-2.156-4.585-7.351-5.15-11.274c3.177,4.636,7.072,5.986,7.279,6.055 c0.304,0.104,0.64,0.051,0.901-0.137C24.846,30.623,25,30.321,25,30c0-3.044-0.367-5.051-0.678-6.207 c1.824,0.104,5.988,0.994,9.722,1.985c0.238,0.075,0.484,0.142,0.739,0.198c0.529,0.116,1.057-0.21,1.188-0.736 c0.13-0.527-0.184-1.062-0.708-1.205c-0.213-0.058-0.424-0.115-0.629-0.17c-5.024-1.636-5.326-8.978-5.032-13.358 C34.873,18.893,45.877,19,46,19c0.3,0,0.583-0.135,0.773-0.366s0.266-0.536,0.207-0.83c-0.621-3.104-2.288-5.149-3.633-6.347 c11.251-2.241,14.581,5.564,14.724,5.914c0.167,0.416,0.588,0.675,1.036,0.623c0.446-0.048,0.805-0.388,0.879-0.83l0.189-1.134 c0.881,2.028,1.949,3.469,2.025,3.569c0.278,0.372,0.775,0.502,1.2,0.316c0.425-0.186,0.667-0.639,0.584-1.095 c-0.633-3.479-0.264-6.069,1.067-7.489c0.712-0.761,1.615-1.101,2.364-1.248c-0.718,4.27,4.556,11.826,5.776,13.504 c0.292,0.402,0.836,0.526,1.276,0.296c3.45-1.827,6.46-2.05,8.946-0.665c5.601,3.121,7.64,13.408,8.303,18.266 C89.806,39.857,87.72,38.29,87.6,38.2c-0.304-0.229-0.708-0.264-1.047-0.095C86.214,38.275,86,38.621,86,39 c0,0.604-0.567,3.146-0.97,4.758c-0.085,0.341,0.015,0.701,0.263,0.949c3.738,3.738,7.497,4.354,9.479,4.376 C93.777,51.317,89.879,52.006,89.834,52.014z"/><path fill="#1f212b" d="M41,65c1.105,0,2,0.895,2,2c0,0.852-0.535,1.575-1.286,1.863C41.966,68.943,42.226,69,42.5,69 c1.657,0,3-1.567,3-3.5s-1.343-3.5-3-3.5s-3,1.567-3,3.5c0,0.059,0.012,0.114,0.015,0.172C39.881,65.262,40.408,65,41,65z"/><path fill="#1f212b" d="M62.5,61c-1.657,0-3,1.567-3,3.5c0,0.059,0.012,0.114,0.015,0.172C59.881,64.262,60.408,64,61,64 c1.105,0,2,0.895,2,2c0,0.852-0.535,1.575-1.286,1.863C61.966,67.943,62.226,68,62.5,68c1.657,0,3-1.567,3-3.5S64.157,61,62.5,61z"/><path fill="#1f212b" d="M60.045,81.502c-5.473-0.497-14.976-0.008-15.072-0.001c-0.276,0.015-0.487,0.25-0.473,0.525 c0.015,0.275,0.25,0.501,0.526,0.473c0.095-0.004,9.526-0.492,14.928-0.001C59.97,82.499,59.985,82.5,60,82.5 c0.256,0,0.474-0.195,0.498-0.455C60.523,81.771,60.32,81.527,60.045,81.502z"/><path fill="#1f212b" d="M51,76.5c0.032,0,0.065-0.003,0.099-0.01c0.271-0.054,0.446-0.317,0.392-0.588 c-0.472-2.359,0.485-6.242,0.495-6.281c0.067-0.268-0.096-0.539-0.364-0.606c-0.269-0.066-0.54,0.096-0.606,0.364 c-0.042,0.168-1.021,4.139-0.505,6.719C50.557,76.336,50.766,76.5,51,76.5z"/><circle cx="38.5" cy="76.5" r="1" fill="#1f212b"/><circle cx="65.5" cy="76.5" r="1" fill="#1f212b"/><circle cx="37.5" cy="78.5" r="1" fill="#1f212b"/><circle cx="40.5" cy="78.5" r="1" fill="#1f212b"/><circle cx="63.5" cy="78.5" r="1" fill="#1f212b"/><circle cx="66.5" cy="78.5" r="1" fill="#1f212b"/><path fill="#1f212b" d="M80.891,31.188c-0.107-0.133-0.274-0.206-0.443-0.185c-0.169,0.018-0.318,0.121-0.395,0.273l-2,4 c-0.055,0.11-0.067,0.236-0.035,0.355l2.851,10.453l-6.139,0.877l-3.038-4.253c-0.16-0.225-0.473-0.276-0.697-0.116 c-0.225,0.161-0.277,0.474-0.116,0.698l3.214,4.5C74.188,47.923,74.34,48,74.5,48c0.023,0,0.047-0.002,0.071-0.005l7-1 c0.142-0.021,0.269-0.101,0.347-0.221s0.102-0.268,0.064-0.406l-2.95-10.815l1.565-3.13l3.512,4.39 c0.173,0.215,0.487,0.25,0.703,0.078c0.215-0.173,0.25-0.487,0.078-0.703L80.891,31.188z"/><path fill="#1f212b" d="M76.5,42c0.195,0,0.376-0.114,0.457-0.297c0.091-0.204,0.035-0.444-0.137-0.587l-6-5 c-0.123-0.104-0.287-0.141-0.441-0.102l-7.491,1.873l-0.857-4.282l3.885-5.828c0.115-0.172,0.112-0.396-0.007-0.565 s-0.33-0.247-0.53-0.197l-8,2c-0.184,0.046-0.326,0.192-0.367,0.377L55.5,36.195l-1.512-6.804c-0.057-0.255-0.3-0.412-0.559-0.387 l-4.5,0.643c-0.273,0.039-0.463,0.292-0.424,0.565c0.039,0.274,0.29,0.453,0.566,0.425l4.042-0.577l1.899,8.548 C55.062,38.837,55.266,39,55.5,39s0.438-0.163,0.488-0.392l1.933-8.698l6.446-1.611l-3.283,4.924 c-0.074,0.11-0.1,0.245-0.074,0.375l1,5c0.027,0.135,0.107,0.252,0.223,0.325c0.116,0.073,0.256,0.095,0.389,0.062l7.754-1.938 l4.451,3.709l-5.255-0.751c-0.272-0.03-0.527,0.15-0.566,0.425c-0.039,0.273,0.151,0.526,0.424,0.565l7,1 C76.453,41.998,76.477,42,76.5,42z"/><path fill="#1f212b" d="M40.879,23.175c-0.156-0.182-0.417-0.226-0.626-0.11c-0.208,0.118-0.303,0.367-0.228,0.594l5,15 C45.096,38.867,45.291,39,45.5,39c0.052,0,0.105-0.008,0.158-0.025c0.262-0.088,0.403-0.371,0.316-0.633l-4.192-12.578 l4.339,5.062c0.18,0.211,0.496,0.233,0.705,0.055c0.21-0.18,0.234-0.496,0.054-0.705L40.879,23.175z"/><path fill="#1f212b" d="M42.224,36.303l-4-2c-0.247-0.124-0.547-0.022-0.671,0.224c-0.124,0.247-0.023,0.547,0.224,0.671 l4,2c0.072,0.036,0.148,0.053,0.223,0.053c0.184,0,0.36-0.102,0.448-0.276C42.571,36.727,42.471,36.427,42.224,36.303z"/><path fill="#1f212b" d="M24.5,45c0.06,0,0.119-0.011,0.176-0.032l4.5-1.688c0.258-0.097,0.389-0.385,0.292-0.644 c-0.097-0.259-0.386-0.393-0.644-0.292l-4.295,1.61l-4.43-2.215l4.483-0.747c0.042-0.007,0.083-0.02,0.121-0.036l9-4 c0.204-0.091,0.323-0.305,0.292-0.526c-0.031-0.221-0.204-0.395-0.424-0.426l-6.779-0.968l-1.296-1.944l9.958,0.905 c0.285,0.016,0.518-0.178,0.543-0.453c0.025-0.274-0.178-0.518-0.453-0.543l-11-1c-0.196-0.01-0.377,0.076-0.475,0.242 c-0.099,0.166-0.093,0.373,0.014,0.533l2,3c0.079,0.118,0.205,0.197,0.345,0.218l5.279,0.754l-7.354,3.269l-5.937,0.989 c-0.214,0.035-0.38,0.205-0.413,0.419s0.077,0.425,0.271,0.521l6,3C24.347,44.982,24.423,45,24.5,45z"/><path fill="#1f212b" d="M36.429,45.005l-5.96,0.852l2.459-4.1c0.142-0.236,0.065-0.544-0.171-0.686 c-0.237-0.144-0.544-0.065-0.686,0.172l-3,5c-0.099,0.165-0.095,0.373,0.012,0.533c0.106,0.16,0.294,0.24,0.487,0.219l5.068-0.725 L28.2,51.1c-0.082,0.062-0.143,0.146-0.174,0.242l-1.489,4.467l-1.556-5.446c-0.063-0.221-0.273-0.37-0.501-0.362 c-0.231,0.01-0.425,0.176-0.47,0.402l-1.5,7.5c-0.054,0.271,0.122,0.534,0.392,0.588c0.033,0.007,0.066,0.01,0.099,0.01 c0.233,0,0.442-0.164,0.49-0.402l1.096-5.478l1.433,5.018c0.061,0.211,0.251,0.357,0.47,0.362c0.224-0.02,0.416-0.135,0.485-0.342 l1.951-5.852L36.8,45.9c0.183-0.138,0.25-0.381,0.162-0.592C36.875,45.097,36.649,44.975,36.429,45.005z"/></svg>